<?xml version="1.0" encoding="UTF-8"?>
<!DOCTYPE svg PUBLIC "-//W3C//DTD SVG 1.1//EN" "http://www.w3.org/Graphics/SVG/1.1/DTD/svg11.dtd">
<svg xmlns="http://www.w3.org/2000/svg" version="1.1" width="474px" height="474px" style="shape-rendering:geometricPrecision; text-rendering:geometricPrecision; image-rendering:optimizeQuality; fill-rule:evenodd; clip-rule:evenodd" xmlns:xlink="http://www.w3.org/1999/xlink">
<g><path style="opacity:1" fill="#fefefe" d="M -0.5,-0.5 C 157.5,-0.5 315.5,-0.5 473.5,-0.5C 473.5,157.5 473.5,315.5 473.5,473.5C 315.5,473.5 157.5,473.5 -0.5,473.5C -0.5,315.5 -0.5,157.5 -0.5,-0.5 Z"/></g>
<g><path style="opacity:1" fill="#ea4336" d="M 115.5,194.5 C 114.448,194.649 113.448,194.483 112.5,194C 90.7699,176.597 68.7699,159.597 46.5,143C 45.252,141.6 44.252,140.1 43.5,138.5C 61.493,102.662 87.493,73.829 121.5,52C 181.682,16.2287 245.016,9.56207 311.5,32C 337.003,41.9946 359.836,56.1612 380,74.5C 380.667,75.5 380.667,76.5 380,77.5C 360.167,97.3333 340.333,117.167 320.5,137C 318.721,136.956 317.055,136.289 315.5,135C 284.91,109.5 249.91,100.5 210.5,108C 163.629,120.38 131.963,149.214 115.5,194.5 Z"/></g>
<g><path style="opacity:1" fill="#f9bc09" d="M 43.5,138.5 C 44.252,140.1 45.252,141.6 46.5,143C 68.7699,159.597 90.7699,176.597 112.5,194C 113.448,194.483 114.448,194.649 115.5,194.5C 108.524,215.26 106.69,236.593 110,258.5C 111.429,265.107 112.595,271.774 113.5,278.5C 110.532,279.542 108.199,281.375 106.5,284C 85.3525,300.314 64.3525,316.814 43.5,333.5C 40.915,329.621 38.415,325.621 36,321.5C 27.7211,300.216 22.3878,278.216 20,255.5C 19.3333,241.167 19.3333,226.833 20,212.5C 22.1807,203.96 23.514,195.293 24,186.5C 27.5044,177.815 30.3377,168.815 32.5,159.5C 35.2275,151.965 38.8941,144.965 43.5,138.5 Z"/></g>
<g><path style="opacity:1" fill="#4386f5" d="M 239.5,197.5 C 238.767,288.966 238.767,291.299 239.5,204.5C 303.503,204.833 367.503,204.5 431.5,203.5C 367.335,202.833 303.335,202.167 239.5,201.5C 303.5,201.5 367.5,201.5 431.5,201.5C 433.92,201.292 436.253,201.626 438.5,202.5C 439.429,201.311 439.762,199.978 439.5,198.5C 437.265,198.795 435.265,198.461 433.5,197.5C 436.167,197.5 438.833,197.5 441.5,197.5C 451.349,254.428 442.516,308.094 415,358.5C 405.729,373.706 394.562,387.373 381.5,399.5C 376.167,399.114 372.167,396.614 369.5,392C 365.88,388.533 361.88,385.7 357.5,383.5C 357.649,382.448 357.483,381.448 357,380.5C 354.125,376.663 350.625,374.663 346.5,374.5C 337.592,368.272 328.925,361.606 320.5,354.5C 319.614,353.675 319.281,352.675 319.5,351.5C 315.617,351.376 312.617,349.709 310.5,346.5C 333.058,330.414 347.391,308.747 353.5,281.5C 315.004,280.501 276.337,280.168 237.5,280.5C 236.842,252.48 237.508,224.813 239.5,197.5 Z"/></g>
<g><path style="opacity:1" fill="#447ffa" d="M 239.5,197.5 C 304.167,197.5 368.833,197.5 433.5,197.5C 435.265,198.461 437.265,198.795 439.5,198.5C 439.762,199.978 439.429,201.311 438.5,202.5C 436.253,201.626 433.92,201.292 431.5,201.5C 399.84,200.167 367.84,199.5 335.5,199.5C 303.16,199.5 271.16,200.167 239.5,201.5C 303.335,202.167 367.335,202.833 431.5,203.5C 367.503,204.5 303.503,204.833 239.5,204.5C 238.767,291.299 238.767,288.966 239.5,197.5 Z"/></g>
<g><path style="opacity:1" fill="#3b8ce9" d="M 431.5,201.5 C 367.5,201.5 303.5,201.5 239.5,201.5C 271.16,200.167 303.16,199.5 335.5,199.5C 367.84,199.5 399.84,200.167 431.5,201.5 Z"/></g>
<g><path style="opacity:1" fill="#8bb0f4" d="M 441.5,197.5 C 438.833,197.5 436.167,197.5 433.5,197.5C 368.833,197.5 304.167,197.5 239.5,197.5C 237.508,224.813 236.842,252.48 237.5,280.5C 276.337,280.168 315.004,280.501 353.5,281.5C 314.5,281.5 275.5,281.5 236.5,281.5C 236.5,253.167 236.5,224.833 236.5,196.5C 305.002,196.167 373.335,196.501 441.5,197.5 Z"/></g>
<g><path style="opacity:1" fill="#35a753" d="M 310.5,346.5 C 312.617,349.709 315.617,351.376 319.5,351.5C 319.281,352.675 319.614,353.675 320.5,354.5C 328.925,361.606 337.592,368.272 346.5,374.5C 349.62,378.298 353.286,381.298 357.5,383.5C 361.88,385.7 365.88,388.533 369.5,392C 372.167,396.614 376.167,399.114 381.5,399.5C 352.819,426.673 318.819,443.507 279.5,450C 210.827,462.105 149.827,446.272 96.5,402.5C 95.6143,401.675 95.281,400.675 95.5,399.5C 94.448,399.649 93.448,399.483 92.5,399C 87.9812,395.478 83.8145,391.645 80,387.5C 79.51,386.207 79.3433,384.873 79.5,383.5C 78.448,383.649 77.448,383.483 76.5,383C 62.8575,368.204 51.8575,351.704 43.5,333.5C 64.3525,316.814 85.3525,300.314 106.5,284C 108.199,281.375 110.532,279.542 113.5,278.5C 114.117,278.389 114.617,278.056 115,277.5C 133.279,328.76 169.445,358.593 223.5,367C 254.901,369.686 283.901,362.853 310.5,346.5 Z"/></g>
<g><path style="opacity:1" fill="#418dcc" d="M 346.5,374.5 C 350.625,374.663 354.125,376.663 357,380.5C 357.483,381.448 357.649,382.448 357.5,383.5C 353.286,381.298 349.62,378.298 346.5,374.5 Z"/></g>
</svg>
